PathFileType	4	(X/Y/Z)	ROM_Ellenbogenflex_R 1.trc
DataRate	CameraRate	NumFrames	NumMarkers	Units	OrigDataRate	OrigDataStartFrame	OrigNumFrames
150	150	15	17	mm	150	1280	2047
Frame#	Time	ST1			ST2			ST3			RACR1			RACR2			RACR3			RUA1			RUA2			RUA3			RUA4			RLA1			RLA2			RLA3			RLA4			RH1			RH2			RH3		
		X1	Y1	Z1	X2	Y2	Z2	X3	Y3	Z3	X4	Y4	Z4	X5	Y5	Z5	X6	Y6	Z6	X7	Y7	Z7	X8	Y8	Z8	X9	Y9	Z9	X10	Y10	Z10	X11	Y11	Z11	X12	Y12	Z12	X13	Y13	Z13	X14	Y14	Z14	X15	Y15	Z15	X16	Y16	Z16	X17	Y17	Z17
	
1280	8.526667	315.750702	1165.187012	-10.731919	333.080322	1111.038208	24.040617	314.954407	1164.244873	45.417263	249.765213	1263.982910	246.569794	206.295700	1164.820801	272.501953	174.036636	1219.107056	177.981079	277.041626	1088.798584	247.209579	288.185730	1035.735352	261.657074	234.687820	1006.799011	258.305756	224.323441	1068.750366	246.669189	388.895386	1022.630981	245.919052	345.754456	1110.130005	254.887009	438.444153	1083.346680	344.406769	441.110779	1005.645264	280.550934	425.905029	1094.831909	223.086136	433.147339	1138.538818	247.749908	466.687744	1099.014526	260.818329
1281	8.533333	315.682770	1165.187500	-10.783103	333.018982	1111.058716	23.987343	314.856659	1164.183105	45.412212	249.484482	1263.995850	246.543503	205.951401	1164.862183	272.334747	173.924377	1219.183838	177.775848	276.373596	1088.723022	247.269180	287.326569	1035.445923	261.764557	233.578384	1006.960754	258.550323	223.548569	1068.908447	246.803574	391.634796	1020.268738	246.957733	350.814728	1109.148438	254.921432	441.374878	1080.118042	345.879883	442.838043	1001.980469	282.472321	431.224426	1091.744995	224.246857	439.754272	1135.394531	248.708527	471.460083	1094.730103	262.746094
1282	8.540000	315.612000	1165.189453	-10.838727	332.978912	1111.101929	23.886942	314.772888	1164.177002	45.377342	249.152008	1264.012817	246.533493	205.607590	1164.883057	272.151398	173.796509	1219.230835	177.556244	275.716736	1088.666992	247.326645	286.439026	1035.195312	261.877167	232.460785	1007.129456	258.756927	222.789200	1069.071289	246.897064	394.411102	1017.781799	248.055923	356.066071	1107.989014	255.028473	444.367249	1076.722412	347.429352	444.593170	998.187378	284.361328	436.614594	1088.449463	225.512436	446.503357	1131.965088	249.785324	476.261475	1090.226807	264.783752
1283	8.546667	315.539612	1165.193115	-10.897925	332.963348	1111.165894	23.735689	314.691315	1164.207886	45.322823	248.776184	1264.036499	246.539337	205.280411	1164.886108	271.959900	173.652740	1219.248901	177.331070	275.080017	1088.625366	247.383621	285.529297	1034.987549	261.991669	231.343796	1007.310852	258.939880	222.050446	1069.240479	246.963623	397.205811	1015.174561	249.214569	361.475037	1106.630127	255.220276	447.400024	1073.159302	349.053619	446.354858	994.267029	286.211700	442.075348	1084.932495	226.864777	453.399384	1128.239380	250.940033	481.100800	1085.477295	266.878784
1284	8.553333	315.467651	1165.199219	-10.960243	332.966156	1111.238770	23.549145	314.605499	1164.258423	45.255302	248.371185	1264.070801	246.554459	204.984619	1164.883911	271.768250	173.496567	1219.243896	177.107758	274.462494	1088.594849	247.450317	284.609802	1034.819946	262.114319	230.238831	1007.504883	259.110809	221.335052	1069.417725	247.017258	400.003296	1012.449463	250.439255	367.006042	1105.057739	255.505417	450.456665	1069.432129	350.746490	448.103546	990.223145	288.020508	447.606384	1081.185181	228.289139	460.456543	1124.213867	252.136978	485.983398	1080.459106	268.993225
1285	8.560000	315.398376	1165.208130	-11.025713	332.971313	1111.305908	23.360420	314.514252	1164.315674	45.178135	247.955612	1264.119507	246.568100	204.728714	1164.893799	271.582336	173.334396	1219.224854	176.890411	273.850830	1088.572021	247.546814	283.695892	1034.685547	262.255066	229.158325	1007.705261	259.270874	220.645096	1069.603638	247.065277	402.792542	1009.607239	251.742020	372.631134	1103.264893	255.886322	453.528839	1065.544800	352.495941	449.824493	986.063049	289.789459	453.202576	1077.205566	229.779877	467.684875	1119.885254	253.364975	490.903320	1075.162354	271.121552
1286	8.566667	315.332947	1165.219604	-11.094088	332.962341	1111.361206	23.198502	314.419556	1164.371338	45.093815	247.549454	1264.185181	246.569138	204.509628	1164.930664	271.406158	173.173859	1219.203491	176.678970	273.225189	1088.553223	247.698441	282.802612	1034.577271	262.417084	228.113266	1007.902771	259.407135	219.982590	1069.797241	247.107101	405.567291	1006.648560	253.138504	378.335846	1101.250244	256.363953	456.617218	1061.495972	354.288147	451.507294	981.794739	291.532867	458.855194	1072.995850	231.338837	475.085297	1115.243774	254.634247	495.845490	1069.586670	273.279755
1287	8.573333	315.270416	1165.232544	-11.164228	332.931854	1111.407715	23.072599	314.324951	1164.421753	45.005245	247.169250	1264.268311	246.549469	204.310364	1164.998413	271.242706	173.021515	1219.191284	176.469620	272.570923	1088.537354	247.922958	281.942200	1034.489380	262.599915	227.111450	1008.091309	259.500305	219.347900	1069.997559	247.141449	408.324371	1003.574707	254.640976	384.120575	1099.017944	256.946777	459.731720	1057.276855	356.117462	453.143951	977.422302	293.286102	464.553589	1068.558838	232.974152	482.649689	1110.273804	255.968765	500.787994	1063.737183	275.491089
1288	8.580000	315.208679	1165.245728	-11.234938	332.881439	1111.450073	22.976847	314.232758	1164.466675	44.914795	246.824051	1264.366089	246.505615	204.107391	1165.091919	271.093201	172.881302	1219.197021	176.256790	271.891876	1088.526978	248.212326	281.121368	1034.418335	262.806244	226.157959	1008.271301	259.539825	218.738190	1070.203491	247.171646	411.063965	1000.386414	256.245819	389.995941	1096.577881	257.657227	462.889038	1052.869873	357.993103	454.727539	972.946960	295.094482	470.284851	1063.897339	234.700821	490.355042	1104.956299	257.409973	505.705322	1057.617432	277.776306
1289	8.586667	315.145569	1165.258911	-11.306242	332.816437	1111.490723	22.901089	314.142456	1164.507568	44.823582	246.514694	1264.473633	246.438156	203.884644	1165.204590	270.955963	172.754135	1219.223999	176.036179	271.217957	1088.529175	248.522049	280.342926	1034.362305	263.038605	225.256500	1008.447327	259.533173	218.150009	1070.412109	247.202530	413.792725	997.085571	257.922211	395.973053	1093.947754	258.531219	466.105286	1048.246704	359.936401	456.252808	968.370483	296.984894	476.031616	1059.015625	236.538315	498.165436	1099.266846	259.011169	510.574097	1051.222046	280.146423
1290	8.593333	315.079865	1165.273193	-11.379344	332.742493	1111.529785	22.835732	314.051971	1164.546265	44.732178	246.236633	1264.584473	246.350021	203.640823	1165.332520	270.828033	172.638550	1219.269897	175.807190	270.594818	1088.553589	248.788422	279.609711	1034.319092	263.293610	224.410538	1008.621582	259.500122	217.583679	1070.616577	247.235046	416.522400	993.678284	259.621185	402.057739	1091.150513	259.613647	469.387115	1043.367188	361.975098	457.715149	963.697205	298.953613	481.771515	1053.920288	238.503723	506.047882	1093.176025	260.815186	515.375977	1044.538086	282.598969
1291	8.600000	315.011566	1165.289551	-11.455230	332.663971	1111.565308	22.772694	313.960388	1164.585327	44.641644	245.984375	1264.694336	246.243622	203.385895	1165.470581	270.707581	172.532013	1219.326294	175.573135	270.060516	1088.606812	248.963776	278.923859	1034.288452	263.564392	223.624969	1008.789795	259.453339	217.044556	1070.809082	247.264648	419.262268	990.177002	261.302307	408.254822	1088.204956	260.952942	472.727936	1038.183350	364.137421	459.108154	958.932312	300.976837	487.479279	1048.619385	240.604950	513.977234	1086.653442	262.839050	520.097900	1037.555420	285.119049
1292	8.606667	314.941528	1165.307007	-11.533437	332.584167	1111.595581	22.706690	313.868805	1164.626099	44.553299	245.755005	1264.804810	246.117950	203.134033	1165.609741	270.594452	172.433380	1219.380005	175.339462	269.632294	1088.688599	249.034210	278.282593	1034.275879	263.846375	222.907410	1008.941895	259.385406	216.540359	1070.982910	247.283295	422.014648	986.598083	262.945587	414.569153	1085.116211	262.596252	476.112915	1032.648071	366.442932	460.423676	954.078308	303.022247	493.133362	1043.120605	242.837753	521.925293	1079.671265	265.070679	524.730591	1030.276489	287.685913
1293	8.613333	314.870331	1165.323242	-11.612599	332.505157	1111.620728	22.636223	313.779663	1164.668213	44.467754	245.544785	1264.918335	245.973434	202.897659	1165.737427	270.489685	172.344070	1219.416748	175.112015	269.305359	1088.793091	249.016953	277.680939	1034.289307	264.137939	222.266159	1009.067932	259.280334	216.078506	1071.134644	247.284103	424.774445	982.952820	264.550751	420.996674	1081.873169	264.585358	479.526215	1026.723877	368.893677	461.655884	949.131104	305.056976	498.723663	1037.427002	245.186859	529.846619	1072.210205	267.477325	529.260742	1022.715393	290.285858
1294	8.620000	314.797791	1165.336426	-11.692444	332.428253	1111.642944	22.562674	313.695709	1164.709595	44.384754	245.342636	1265.032349	245.821686	202.683456	1165.839600	270.395111	172.266876	1219.425659	174.896469	269.054901	1088.909302	248.954590	277.117584	1034.330444	264.436462	221.704575	1009.164429	259.134216	215.665131	1071.264771	247.264694	427.529938	979.239197	266.135803	427.514923	1078.450439	266.949280	482.947021	1020.394287	371.469513	462.803772	944.082214	307.060364	504.245728	1031.531128	247.631393	537.665161	1064.272461	270.029968	533.660583	1014.888428	292.921906
